<?xml version="1.0" encoding="iso-8859-1"?>
<!-- Generator: Adobe Illustrator 19.0.0, SVG Export Plug-In . SVG Version: 6.00 Build 0)  -->
<svg version="1.1" id="Capa_1" xmlns="http://www.w3.org/2000/svg" xmlns:xlink="http://www.w3.org/1999/xlink" x="0px" y="0px"
	 viewBox="0 0 378.389 378.389" style="enable-background:new 0 0 378.389 378.389;" xml:space="preserve">
<g>
	<path style="fill:#FFCC66;" d="M104.481,95.432l201.2-62c4.4-1.2,8.8,1.2,10.4,5.6l62,201.2c1.2,4.4-1.2,8.8-5.6,10.4l-201.2,61.6
		c-4.4,1.2-8.8-1.2-10.4-5.6l-61.6-200.8C97.681,101.432,100.081,96.632,104.481,95.432"/>
	<path style="fill:#EAAA5E;" d="M195.281,305.032l-66.8-216.8l-23.6,7.2c-4.4,1.2-6.8,6-5.6,10.4l62,200.8c1.2,4.4,6,6.8,10.4,5.6
		L195.281,305.032z"/>
	<polygon style="fill:#DDAC57;" points="205.281,110.232 207.681,112.632 210.081,114.632 210.881,111.432 211.681,108.232 
		214.081,110.632 216.481,112.632 217.281,109.432 218.081,106.232 220.481,108.632 222.881,111.032 223.681,107.832 
		224.481,104.232 226.881,106.632 229.281,109.032 230.081,105.832 230.881,102.632 233.281,104.632 235.681,107.032 
		220.881,59.432 189.281,69.432 204.081,116.632 204.481,113.432 	"/>
	<g>
		<path style="fill:#E6E6E6;" d="M150.481,318.632l197.6-60.8c7.2-2.4,14.8,2,17.2,9.2c2.4,7.2-2,14.8-9.2,17.2l-197.6,60.8
			c-7.2,2.4-14.8-2-17.2-9.2C139.281,328.632,143.281,321.032,150.481,318.632"/>
		<path style="fill:#E6E6E6;" d="M141.281,335.832l-94.8-308.4c-2.4-7.2,2-14.8,9.2-17.2c7.2-2.4,14.8,2,17.2,9.2l95.2,308.4
			c2.4,7.2-2,14.8-9.2,17.2C151.281,347.032,143.681,343.032,141.281,335.832"/>
	</g>
	<path style="fill:#DDAC57;" d="M61.281,9.432l-46-5.6c-7.6-0.8-14.4,4.4-15.2,12c-0.8,7.6,4.4,14.4,12,15.2l46,5.6
		c7.6,0.8,14.4-4.4,15.2-12l0,0C74.081,17.432,68.881,10.632,61.281,9.432"/>
	<path style="fill:#606060;" d="M141.681,290.232c22.8-7.2,46.8,5.6,54,28.4c7.2,22.8-5.6,46.8-28.4,54s-46.8-5.6-54-28.4
		S118.881,297.432,141.681,290.232"/>
	<path style="fill:#DDAC57;" d="M147.681,309.832c12-3.6,24.8,3.2,28.4,15.2c3.6,12-3.2,24.8-15.2,28.4s-24.8-3.2-28.4-15.2
		S135.681,313.832,147.681,309.832"/>
</g>
<g>
</g>
<g>
</g>
<g>
</g>
<g>
</g>
<g>
</g>
<g>
</g>
<g>
</g>
<g>
</g>
<g>
</g>
<g>
</g>
<g>
</g>
<g>
</g>
<g>
</g>
<g>
</g>
<g>
</g>
</svg>
