<svg id="Layer_1" data-name="Layer 1" xmlns="http://www.w3.org/2000/svg" viewBox="0 0 283.46 283.46"><defs><style>.cls-2,.cls-3{fill:none;stroke:#000;stroke-linecap:round;stroke-width:11px;}.cls-2{stroke-miterlimit:10;}.cls-3{stroke-linejoin:round;}</style></defs><title>Artboard 2 copy 9</title><path d="M80,155a30.86,30.86,0,0,1,8.4,1A13.66,13.66,0,0,1,94,158.89a5.7,5.7,0,0,1,2,4.35,5.51,5.51,0,0,1-1,3.16,3.37,3.37,0,0,1-3,1.48,5.33,5.33,0,0,1-3.8-1.35,9.54,9.54,0,0,0-1.6-1.1,8.11,8.11,0,0,0-2.58-.8,16.72,16.72,0,0,0-2.58-.3,13.58,13.58,0,0,0-7.3,1.86,12.33,12.33,0,0,0-4.6,5,16,16,0,0,0-1.61,7.3,15.37,15.37,0,0,0,1.65,7.22,12.89,12.89,0,0,0,4.56,5,12.19,12.19,0,0,0,6.71,1.86,22.18,22.18,0,0,0,3.63-.26,9,9,0,0,0,2.54-.76,15.84,15.84,0,0,0,2.11-1.43,4.32,4.32,0,0,1,2.79-.76,4.17,4.17,0,0,1,3.37,1.39,5.11,5.11,0,0,1,1.19,3.42,4.82,4.82,0,0,1-2.37,3.84,18.76,18.76,0,0,1-6.21,2.79,31.41,31.41,0,0,1-8.31,1.06A21.21,21.21,0,0,1,68,198.83a20.49,20.49,0,0,1-7.56-8.4,26.19,26.19,0,0,1-2.66-11.91,25.4,25.4,0,0,1,2.83-12.2A20.94,20.94,0,0,1,68.47,158,22.14,22.14,0,0,1,80,155Z"/><path d="M132.53,201.92a30.29,30.29,0,0,1-12-2.37,31,31,0,0,1-16.43-16.21,30.22,30.22,0,0,1,0-23.65,31,31,0,0,1,16.43-16.21,30.29,30.29,0,0,1,12-2.37,34.76,34.76,0,0,1,7.68.84,26.83,26.83,0,0,1,6.84,2.54,4.5,4.5,0,0,1,1.9,1.81,4.68,4.68,0,0,1,.64,2.33,5.49,5.49,0,0,1-1.35,3.63,4.33,4.33,0,0,1-3.47,1.6,5.68,5.68,0,0,1-1.39-.17,6.42,6.42,0,0,1-1.39-.5,23.23,23.23,0,0,0-4.48-1.44,23.62,23.62,0,0,0-5-.51,18.91,18.91,0,0,0-10,2.75,20.48,20.48,0,0,0-7.18,7.35,20.71,20.71,0,0,0,0,20.31,20.43,20.43,0,0,0,7.18,7.39,18.9,18.9,0,0,0,10,2.74,34.92,34.92,0,0,0,5.57-.5,21.2,21.2,0,0,0,5-1.36l-.76,2.54V178l1.44,1.26h-9.37a5.06,5.06,0,0,1-3.68-1.43,5.2,5.2,0,0,1,0-7.27,5.1,5.1,0,0,1,3.68-1.43h13.85a4.84,4.84,0,0,1,3.63,1.48,5.08,5.08,0,0,1,1.43,3.67v17.9a4.56,4.56,0,0,1-.8,2.79,7.26,7.26,0,0,1-1.81,1.78,37,37,0,0,1-8.49,3.75A33.16,33.16,0,0,1,132.53,201.92Z"/><path d="M206,178.52a23.82,23.82,0,0,1-3.08,12.21,22.09,22.09,0,0,1-8.28,8.23,24.25,24.25,0,0,1-23.22,0,22.17,22.17,0,0,1-8.28-8.23,25.72,25.72,0,0,1,0-24.41,22.52,22.52,0,0,1,8.28-8.28,24,24,0,0,1,23.22,0,22.45,22.45,0,0,1,8.28,8.28A23.81,23.81,0,0,1,206,178.52Zm-10.13,0a15.38,15.38,0,0,0-1.73-7.47,13,13,0,0,0-4.65-4.94,12.61,12.61,0,0,0-12.92,0,12.85,12.85,0,0,0-4.64,4.94,15.27,15.27,0,0,0-1.74,7.47,15.09,15.09,0,0,0,1.74,7.39,12.85,12.85,0,0,0,4.64,4.94,12.61,12.61,0,0,0,12.92,0,13,13,0,0,0,4.65-4.94A15.2,15.2,0,0,0,195.87,178.52Z"/><path class="cls-2" d="M216.21,177.08H230.4a7.08,7.08,0,0,0,7.09-7.09V84.67a7.08,7.08,0,0,0-7.09-7.09H113.24a7.08,7.08,0,0,0-7.08,7.09v57.1"/><path class="cls-3" d="M90.69,104.41H80.14a7.08,7.08,0,0,0-5.58,2.73L49,139.81a7.11,7.11,0,0,0-1.5,4.36v27.19"/></svg>