<svg id="Layer_1" data-name="Layer 1" xmlns="http://www.w3.org/2000/svg" viewBox="0 0 280 150"><title>fullBlack</title><path d="M25,93.05a30.88,30.88,0,0,1,8.4,1A13.68,13.68,0,0,1,39,96.89a5.68,5.68,0,0,1,2,4.35,5.55,5.55,0,0,1-1,3.17,3.38,3.38,0,0,1-3,1.47,5.33,5.33,0,0,1-3.8-1.35,9.25,9.25,0,0,0-1.61-1.1,8,8,0,0,0-2.57-.8,17.74,17.74,0,0,0-2.58-.29,13.67,13.67,0,0,0-7.3,1.85,12.33,12.33,0,0,0-4.6,5,16,16,0,0,0-1.61,7.3,15.44,15.44,0,0,0,1.65,7.23,12.93,12.93,0,0,0,4.56,5,12.19,12.19,0,0,0,6.71,1.86,23.47,23.47,0,0,0,3.63-.25,9,9,0,0,0,2.54-.77,14.68,14.68,0,0,0,2.11-1.43,4.32,4.32,0,0,1,2.79-.76,4.17,4.17,0,0,1,3.37,1.39,5.11,5.11,0,0,1,1.19,3.42q0,2.11-2.37,3.85a19,19,0,0,1-6.21,2.78,31,31,0,0,1-8.31,1.06A21.35,21.35,0,0,1,13,136.84a20.63,20.63,0,0,1-7.55-8.41,26.13,26.13,0,0,1-2.66-11.91,25.4,25.4,0,0,1,2.83-12.2A20.94,20.94,0,0,1,13.45,96,22.14,22.14,0,0,1,25,93.05Z"/><path d="M85.36,93.05A4.92,4.92,0,0,1,89,94.48a5,5,0,0,1,1.44,3.72v35.72A5.07,5.07,0,0,1,89,137.6a5.22,5.22,0,0,1-7.26,0,5.07,5.07,0,0,1-1.44-3.68v-4.14l1.86.76A4.71,4.71,0,0,1,81,133.2a16.15,16.15,0,0,1-3.21,3.09A19.61,19.61,0,0,1,73,138.86,16.33,16.33,0,0,1,67,139.92a19.29,19.29,0,0,1-10.56-3A21.06,21.06,0,0,1,49,128.64a28.35,28.35,0,0,1,0-24.32A21.39,21.39,0,0,1,56.39,96a18.7,18.7,0,0,1,10.31-3,19.57,19.57,0,0,1,6.67,1.09,20.29,20.29,0,0,1,5.28,2.79,16.27,16.27,0,0,1,3.46,3.42,5.43,5.43,0,0,1,1.22,2.92l-3,1.09V98.2a5.07,5.07,0,0,1,1.44-3.68A4.87,4.87,0,0,1,85.36,93.05ZM68.3,130.63a11.46,11.46,0,0,0,6.51-1.86,12.59,12.59,0,0,0,4.34-5.07,16.07,16.07,0,0,0,1.57-7.18,16.26,16.26,0,0,0-1.57-7.26,12.59,12.59,0,0,0-4.34-5.07,11.53,11.53,0,0,0-6.51-1.85,11.37,11.37,0,0,0-6.42,1.85,12.69,12.69,0,0,0-4.35,5.07A16.4,16.4,0,0,0,56,116.52a16.2,16.2,0,0,0,1.56,7.18,12.69,12.69,0,0,0,4.35,5.07A11.3,11.3,0,0,0,68.3,130.63Z"/><path d="M106.47,139.07a4.87,4.87,0,0,1-3.63-1.47,5.06,5.06,0,0,1-1.43-3.68V99a5,5,0,0,1,1.43-3.67,5.19,5.19,0,0,1,7.26,0A5,5,0,0,1,111.54,99V107l-.59-5.66a13.22,13.22,0,0,1,2.41-3.59,14,14,0,0,1,3.33-2.61,15,15,0,0,1,4-1.57,18.51,18.51,0,0,1,4.23-.5,6.51,6.51,0,0,1,4.26,1.43,4.31,4.31,0,0,1,1.73,3.38,5,5,0,0,1-1.44,4,4.67,4.67,0,0,1-3.12,1.23,7,7,0,0,1-2.91-.59,7.17,7.17,0,0,0-3-.6,7.32,7.32,0,0,0-3.08.72,8.57,8.57,0,0,0-2.88,2.24,11.93,11.93,0,0,0-2.11,3.76,15.77,15.77,0,0,0-.8,5.28v20a5.07,5.07,0,0,1-1.44,3.68A4.84,4.84,0,0,1,106.47,139.07Z"/><path d="M166.77,139.92a30.33,30.33,0,0,1-12-2.37A30.84,30.84,0,0,1,145,131a31.2,31.2,0,0,1-6.63-9.67,30.33,30.33,0,0,1,0-23.65A31.2,31.2,0,0,1,145,88a30.84,30.84,0,0,1,9.8-6.54,30.33,30.33,0,0,1,12-2.37,34.2,34.2,0,0,1,7.69.85,26.45,26.45,0,0,1,6.84,2.53,4.58,4.58,0,0,1,1.9,1.82,4.74,4.74,0,0,1,.63,2.32,5.49,5.49,0,0,1-1.35,3.63,4.31,4.31,0,0,1-3.46,1.6,6.12,6.12,0,0,1-1.39-.16,7.12,7.12,0,0,1-1.4-.51,23.35,23.35,0,0,0-4.47-1.44,24.33,24.33,0,0,0-5-.5,18.86,18.86,0,0,0-10,2.74,20.32,20.32,0,0,0-7.18,7.35,20.71,20.71,0,0,0,0,20.31,20.2,20.2,0,0,0,7.18,7.39,18.86,18.86,0,0,0,10,2.74,35,35,0,0,0,5.58-.5,22,22,0,0,0,5-1.35l-.76,2.53V116l1.44,1.26h-9.38a5,5,0,0,1-3.67-1.43,5.19,5.19,0,0,1,0-7.26,5,5,0,0,1,3.67-1.44h13.85a4.84,4.84,0,0,1,3.63,1.48,5,5,0,0,1,1.44,3.67v17.91a4.62,4.62,0,0,1-.8,2.78,7.13,7.13,0,0,1-1.82,1.78,36.56,36.56,0,0,1-8.49,3.75A33.16,33.16,0,0,1,166.77,139.92Z"/><path d="M240.25,116.52a23.73,23.73,0,0,1-3.09,12.21,22.07,22.07,0,0,1-8.27,8.23,24.27,24.27,0,0,1-23.23,0,22.07,22.07,0,0,1-8.27-8.23,25.65,25.65,0,0,1,0-24.41A22.42,22.42,0,0,1,205.66,96a24.05,24.05,0,0,1,23.23,0,22.42,22.42,0,0,1,8.27,8.28A23.71,23.71,0,0,1,240.25,116.52Zm-10.14,0a15.38,15.38,0,0,0-1.73-7.47,12.85,12.85,0,0,0-4.64-4.94,12.69,12.69,0,0,0-12.93,0,12.85,12.85,0,0,0-4.64,4.94,15.38,15.38,0,0,0-1.73,7.47,15.2,15.2,0,0,0,1.73,7.39,12.78,12.78,0,0,0,4.64,4.94,12.63,12.63,0,0,0,12.93,0,12.78,12.78,0,0,0,4.64-4.94A15.2,15.2,0,0,0,230.11,116.52Z"/><path d="M264.65,120.58h-14.9a5.5,5.5,0,0,1,0-11h14.9a1.58,1.58,0,0,0,1.58-1.58V22.67a1.59,1.59,0,0,0-1.58-1.59H147.49a1.59,1.59,0,0,0-1.59,1.59V77.08a5.5,5.5,0,1,1-11,0V22.67a12.61,12.61,0,0,1,12.59-12.59H264.65a12.6,12.6,0,0,1,12.58,12.59V108A12.59,12.59,0,0,1,264.65,120.58Z"/><path d="M88.28,82.75a5.49,5.49,0,0,1-4.67-8.4L102.74,43.5a12.55,12.55,0,0,1,11.07-6.58h11.35a5.5,5.5,0,0,1,0,11H113.81a1.59,1.59,0,0,0-1.41.85,3.59,3.59,0,0,1-.21.38L93,80.15A5.48,5.48,0,0,1,88.28,82.75Z"/></svg>