<svg id="Layer_1" data-name="Layer 1" xmlns="http://www.w3.org/2000/svg" viewBox="0 0 205 150"><title>shortBlack</title><path d="M40,93.05a31,31,0,0,1,8.41,1A13.68,13.68,0,0,1,54,96.89a5.71,5.71,0,0,1,2,4.35,5.48,5.48,0,0,1-1,3.17A3.35,3.35,0,0,1,52,105.88a5.57,5.57,0,0,1-2.24-.38,5.68,5.68,0,0,1-1.57-1,9.15,9.15,0,0,0-1.6-1.1,7.94,7.94,0,0,0-2.58-.8,17.64,17.64,0,0,0-2.57-.29,13.71,13.71,0,0,0-7.31,1.85,12.4,12.4,0,0,0-4.6,5,15.94,15.94,0,0,0-1.6,7.3,15.43,15.43,0,0,0,1.64,7.23,12.93,12.93,0,0,0,4.56,5,12.23,12.23,0,0,0,6.72,1.86,23.56,23.56,0,0,0,3.63-.25,8.91,8.91,0,0,0,2.53-.77,14.14,14.14,0,0,0,2.11-1.43,4.32,4.32,0,0,1,2.79-.76,4.19,4.19,0,0,1,3.38,1.39,5.1,5.1,0,0,1,1.18,3.42,4.86,4.86,0,0,1-2.36,3.85,19.06,19.06,0,0,1-6.21,2.78,31.08,31.08,0,0,1-8.32,1.06A21.31,21.31,0,0,1,28,136.84a20.65,20.65,0,0,1-7.56-8.41,26.26,26.26,0,0,1-2.66-11.91,25.4,25.4,0,0,1,2.83-12.2,20.91,20.91,0,0,1,7.85-8.27A22.07,22.07,0,0,1,40,93.05Z"/><path d="M92.52,139.92a30.33,30.33,0,0,1-12-2.37,30.84,30.84,0,0,1-9.8-6.54,31.2,31.2,0,0,1-6.63-9.67,30.33,30.33,0,0,1,0-23.65A31.2,31.2,0,0,1,70.73,88a30.84,30.84,0,0,1,9.8-6.54,30.33,30.33,0,0,1,12-2.37,34.2,34.2,0,0,1,7.69.85,26.45,26.45,0,0,1,6.84,2.53,4.58,4.58,0,0,1,1.9,1.82,4.74,4.74,0,0,1,.63,2.32,5.49,5.49,0,0,1-1.35,3.63,4.31,4.31,0,0,1-3.46,1.6,6.12,6.12,0,0,1-1.39-.16,7.12,7.12,0,0,1-1.4-.51,23.35,23.35,0,0,0-4.47-1.44,24.33,24.33,0,0,0-5-.5,18.86,18.86,0,0,0-10,2.74,20.32,20.32,0,0,0-7.18,7.35,20.71,20.71,0,0,0,0,20.31A20.2,20.2,0,0,0,82.52,127a18.86,18.86,0,0,0,10,2.74,35,35,0,0,0,5.58-.5,22,22,0,0,0,5-1.35l-.76,2.53V116l1.44,1.26H94.38a5,5,0,0,1-3.67-1.43,5.19,5.19,0,0,1,0-7.26,5,5,0,0,1,3.67-1.44h13.85a4.81,4.81,0,0,1,3.63,1.48,5,5,0,0,1,1.44,3.67v17.91a4.62,4.62,0,0,1-.8,2.78,7.13,7.13,0,0,1-1.82,1.78,36.56,36.56,0,0,1-8.49,3.75A33.16,33.16,0,0,1,92.52,139.92Z"/><path d="M166,116.52a23.82,23.82,0,0,1-3.08,12.21,22.17,22.17,0,0,1-8.28,8.23,24.27,24.27,0,0,1-23.23,0,22.07,22.07,0,0,1-8.27-8.23,25.65,25.65,0,0,1,0-24.41,22.32,22.32,0,0,1,8.27-8.27,24,24,0,0,1,23.23,0,22.42,22.42,0,0,1,8.28,8.27A23.81,23.81,0,0,1,166,116.52Zm-10.14,0a15.27,15.27,0,0,0-1.73-7.47,12.85,12.85,0,0,0-4.64-4.94,12.67,12.67,0,0,0-12.92,0,12.8,12.8,0,0,0-4.65,4.94,15.38,15.38,0,0,0-1.73,7.47,15.2,15.2,0,0,0,1.73,7.39,12.73,12.73,0,0,0,4.65,4.94,12.61,12.61,0,0,0,12.92,0,12.78,12.78,0,0,0,4.64-4.94A15.09,15.09,0,0,0,155.86,116.52Z"/><path d="M190.4,120.58H176.21a5.5,5.5,0,0,1,0-11H190.4A1.59,1.59,0,0,0,192,108V22.67a1.59,1.59,0,0,0-1.59-1.59H73.24a1.59,1.59,0,0,0-1.59,1.59v57.1a5.5,5.5,0,1,1-11,0V22.67A12.61,12.61,0,0,1,73.24,10.08H190.4A12.61,12.61,0,0,1,203,22.67V108A12.6,12.6,0,0,1,190.4,120.58Z"/><path d="M7.51,114.86a5.51,5.51,0,0,1-5.5-5.5V82.17a12.63,12.63,0,0,1,2.68-7.75L30.22,41.75a12.52,12.52,0,0,1,9.92-4.83H50.68a5.5,5.5,0,0,1,0,11H40.14a1.59,1.59,0,0,0-1.25.6L13.35,81.2a1.57,1.57,0,0,0-.34,1v27.19A5.5,5.5,0,0,1,7.51,114.86Z"/></svg>