<svg id="Layer_1" data-name="Layer 1" xmlns="http://www.w3.org/2000/svg" viewBox="0 0 566.93 283.46"><defs><style>.cls-1{fill:#0b6f89;}.cls-2,.cls-3{fill:none;stroke:#0b6f89;stroke-linecap:round;stroke-width:11px;}.cls-2{stroke-miterlimit:10;}.cls-3{stroke-linejoin:round;}</style></defs><title>Artboard 2 copy 8</title><path class="cls-1" d="M170.09,154.41a31,31,0,0,1,8.41,1,13.68,13.68,0,0,1,5.57,2.83,5.71,5.71,0,0,1,2,4.35,5.48,5.48,0,0,1-1,3.17,3.35,3.35,0,0,1-2.95,1.47,5.33,5.33,0,0,1-3.8-1.35,9.64,9.64,0,0,0-1.61-1.1,8,8,0,0,0-2.57-.8,17.89,17.89,0,0,0-2.58-.29,13.71,13.71,0,0,0-7.31,1.85,12.47,12.47,0,0,0-4.6,5,16,16,0,0,0-1.6,7.31,15.54,15.54,0,0,0,1.64,7.22,12.93,12.93,0,0,0,4.56,5,12.25,12.25,0,0,0,6.72,1.86,23.47,23.47,0,0,0,3.63-.25,8.91,8.91,0,0,0,2.53-.77,14.14,14.14,0,0,0,2.11-1.43,4.32,4.32,0,0,1,2.79-.76,4.18,4.18,0,0,1,3.38,1.39,5.1,5.1,0,0,1,1.18,3.42,4.86,4.86,0,0,1-2.36,3.85,19.06,19.06,0,0,1-6.21,2.78,31,31,0,0,1-8.32,1.06,21.31,21.31,0,0,1-11.57-3.08,20.72,20.72,0,0,1-7.56-8.41,26.25,26.25,0,0,1-2.66-11.9,25.53,25.53,0,0,1,2.83-12.21,20.94,20.94,0,0,1,7.86-8.27A22,22,0,0,1,170.09,154.41Z"/><path class="cls-1" d="M230.48,154.41a5,5,0,0,1,3.63,1.43,5,5,0,0,1,1.44,3.72v35.72a5.07,5.07,0,0,1-1.44,3.68,5.22,5.22,0,0,1-7.26,0,5.07,5.07,0,0,1-1.44-3.68v-4.14l1.86.76a4.78,4.78,0,0,1-1.18,2.66,16.15,16.15,0,0,1-3.21,3.09,19.8,19.8,0,0,1-4.77,2.57,16.35,16.35,0,0,1-6,1.06,19.28,19.28,0,0,1-10.55-3,21.06,21.06,0,0,1-7.48-8.28,25.83,25.83,0,0,1-2.74-12.11,26.1,26.1,0,0,1,2.74-12.21,21.21,21.21,0,0,1,7.39-8.27,18.6,18.6,0,0,1,10.3-3,19.63,19.63,0,0,1,6.68,1.09,20.38,20.38,0,0,1,5.27,2.79,16.1,16.1,0,0,1,3.47,3.42,5.51,5.51,0,0,1,1.22,2.92l-3,1.09v-6.16a5.08,5.08,0,0,1,1.44-3.68A4.84,4.84,0,0,1,230.48,154.41ZM213.42,192a11.43,11.43,0,0,0,6.5-1.86,12.53,12.53,0,0,0,4.35-5.07,16.19,16.19,0,0,0,1.56-7.17,16.41,16.41,0,0,0-1.56-7.27,12.53,12.53,0,0,0-4.35-5.07,11.5,11.5,0,0,0-6.5-1.85,11.37,11.37,0,0,0-6.42,1.85,12.53,12.53,0,0,0-4.35,5.07,16.41,16.41,0,0,0-1.56,7.27,16.19,16.19,0,0,0,1.56,7.17,12.53,12.53,0,0,0,4.35,5.07A11.3,11.3,0,0,0,213.42,192Z"/><path class="cls-1" d="M251.59,200.43A4.87,4.87,0,0,1,248,199a5.07,5.07,0,0,1-1.44-3.68V160.4a5.06,5.06,0,0,1,1.44-3.67,5.19,5.19,0,0,1,7.26,0,5.06,5.06,0,0,1,1.44,3.67v7.94l-.59-5.66a13.43,13.43,0,0,1,2.4-3.59,14.28,14.28,0,0,1,3.34-2.61,15,15,0,0,1,4-1.57,18.43,18.43,0,0,1,4.22-.5,6.52,6.52,0,0,1,4.27,1.43,4.31,4.31,0,0,1,1.73,3.38,5,5,0,0,1-1.44,4,4.71,4.71,0,0,1-3.12,1.23,7.12,7.12,0,0,1-2.92-.59,7.09,7.09,0,0,0-3-.6,7.33,7.33,0,0,0-3.09.72,8.54,8.54,0,0,0-2.87,2.24,11.74,11.74,0,0,0-2.11,3.76,15.52,15.52,0,0,0-.8,5.28v20a5.07,5.07,0,0,1-1.44,3.68A4.87,4.87,0,0,1,251.59,200.43Z"/><path class="cls-1" d="M311.89,201.28a30.29,30.29,0,0,1-12-2.37,31,31,0,0,1-16.43-16.21,30.22,30.22,0,0,1,0-23.65,31,31,0,0,1,16.43-16.21,30.29,30.29,0,0,1,12-2.37,34,34,0,0,1,7.68.85,26.65,26.65,0,0,1,6.85,2.53,4.64,4.64,0,0,1,1.9,1.82A4.74,4.74,0,0,1,329,148a5.49,5.49,0,0,1-1.35,3.63,4.33,4.33,0,0,1-3.47,1.6,6.18,6.18,0,0,1-1.39-.16,7,7,0,0,1-1.39-.51,23.23,23.23,0,0,0-4.48-1.44,24.31,24.31,0,0,0-5-.5,18.9,18.9,0,0,0-10,2.74,20.48,20.48,0,0,0-7.18,7.35,20.71,20.71,0,0,0,0,20.31,20.36,20.36,0,0,0,7.18,7.39,18.9,18.9,0,0,0,10,2.74,34.82,34.82,0,0,0,5.57-.5,22,22,0,0,0,5-1.35l-.76,2.53V177.38l1.43,1.26h-9.37a5.06,5.06,0,0,1-3.68-1.43,5.22,5.22,0,0,1,0-7.26,5.07,5.07,0,0,1,3.68-1.44H327.6a4.84,4.84,0,0,1,3.63,1.48,5,5,0,0,1,1.44,3.67v17.91a4.56,4.56,0,0,1-.81,2.78,7.1,7.1,0,0,1-1.81,1.78,37,37,0,0,1-8.49,3.76A33.49,33.49,0,0,1,311.89,201.28Z"/><path class="cls-1" d="M385.36,177.89a23.71,23.71,0,0,1-3.08,12.2,22,22,0,0,1-8.28,8.23,24.25,24.25,0,0,1-23.22,0,22.17,22.17,0,0,1-8.28-8.23,25.72,25.72,0,0,1,0-24.41,22.42,22.42,0,0,1,8.28-8.27,24,24,0,0,1,23.22,0,22.27,22.27,0,0,1,8.28,8.27A23.72,23.72,0,0,1,385.36,177.89Zm-10.13,0a15.39,15.39,0,0,0-1.73-7.48,12.88,12.88,0,0,0-4.65-4.94,12.67,12.67,0,0,0-12.92,0,12.85,12.85,0,0,0-4.64,4.94,15.28,15.28,0,0,0-1.73,7.48,15.07,15.07,0,0,0,1.73,7.38,12.88,12.88,0,0,0,4.64,4.95,12.67,12.67,0,0,0,12.92,0,12.9,12.9,0,0,0,4.65-4.95A15.18,15.18,0,0,0,375.23,177.89Z"/><path class="cls-2" d="M394.86,176.44h14.9a7.08,7.08,0,0,0,7.09-7.08V84a7.08,7.08,0,0,0-7.09-7.09H292.6A7.08,7.08,0,0,0,285.52,84v54.41"/><path class="cls-3" d="M270.27,103.78H258.93a7.08,7.08,0,0,0-6.3,3.83l-19.23,31"/></svg>