<?xml version="1.0" encoding="iso-8859-1"?>
<!-- Generator: Adobe Illustrator 19.0.0, SVG Export Plug-In . SVG Version: 6.00 Build 0)  -->
<svg version="1.1" id="Capa_1" xmlns="http://www.w3.org/2000/svg" xmlns:xlink="http://www.w3.org/1999/xlink" x="0px" y="0px"
	 viewBox="0 0 435.2 435.2" style="enable-background:new 0 0 435.2 435.2;" xml:space="preserve">
<g>
	<path style="fill:#E6E6E6;" d="M292,296.4h129.6c7.6,0,13.6-6,13.6-13.6v-67.2c0-6-4.4-11.6-10.4-13.2l-43.2-10.8L354.4,142
		c-2.8-4.8-8-8-13.6-8H292V296.4z"/>
	<path style="fill:#FFCC66;" d="M73.2,296.4H292V100H73.2c-7.6,0-13.6,6-13.6,13.6V156h68c6,0,10.8,4.8,10.8,10.8l0,0
		c0,6-4.8,10.8-10.8,10.8h-68v104.8C59.6,290.4,66,296.4,73.2,296.4"/>
	<path style="fill:#606060;" d="M136.8,257.6c21.6,0,38.8,17.2,38.8,38.8s-17.2,38.8-38.8,38.8S98,318,98,296.4
		S115.2,257.6,136.8,257.6"/>
	<path style="fill:#DDAC57;" d="M136.8,276c11.2,0,20.4,9.2,20.4,20.4s-9.2,20.4-20.4,20.4s-20.4-9.2-20.4-20.4
		C116,285.2,125.2,276,136.8,276"/>
	<path style="fill:#606060;" d="M381.2,257.6c21.6,0,38.8,17.2,38.8,38.8s-17.2,38.8-38.8,38.8c-21.6,0-38.8-17.2-38.8-38.8
		C342.4,274.8,359.6,257.6,381.2,257.6"/>
	<path style="fill:#DDAC57;" d="M381.2,276c11.2,0,20.4,9.2,20.4,20.4s-9.2,20.4-20.4,20.4c-11.2,0-20.4-9.2-20.4-20.4
		C360.4,285.2,369.6,276,381.2,276"/>
	<g>
		<path style="fill:#FFCC66;" d="M10.8,134h166c6,0,10.8,4.8,10.8,10.8l0,0c0,6-4.8,10.8-10.8,10.8h-166c-6,0-10.8-4.8-10.8-10.8
			l0,0C0,139.2,4.8,134,10.8,134"/>
		<path style="fill:#FFCC66;" d="M46,178h81.6c6,0,10.8,4.8,10.8,10.8l0,0c0,6-4.8,10.8-10.8,10.8H46c-6,0-10.8-4.8-10.8-10.8l0,0
			C35.2,182.8,40,178,46,178"/>
		<path style="fill:#FFCC66;" d="M18,178L18,178c6,0,10.8,4.8,10.8,10.8v0.8c0,6-4.8,10.8-10.8,10.8l0,0c-6,0-10.8-4.8-10.8-10.8
			v-0.8C7.6,182.8,12,178,18,178"/>
	</g>
	<g>
		<path style="fill:#EAAA5E;" d="M292,282.8H173.2c1.6,4.4,2.4,8.8,2.4,13.6H292V282.8z"/>
		<path style="fill:#EAAA5E;" d="M98,296.4c0-4.8,0.8-9.2,2.4-13.6H59.6c0,7.6,6,13.6,13.6,13.6H98z"/>
	</g>
	<g>
		<path style="fill:#D1D1D1;" d="M292,282.8v13.6h50.4c0-4.8,0.8-9.2,2.4-13.6H292z"/>
		<path style="fill:#D1D1D1;" d="M417.6,282.8c1.6,4.4,2.4,8.8,2.4,13.6h1.6c7.6,0,13.6-6,13.6-13.6H417.6z"/>
	</g>
	<rect x="279.6" y="100" style="fill:#EAAA5E;" width="12.4" height="196.4"/>
</g>
<g>
</g>
<g>
</g>
<g>
</g>
<g>
</g>
<g>
</g>
<g>
</g>
<g>
</g>
<g>
</g>
<g>
</g>
<g>
</g>
<g>
</g>
<g>
</g>
<g>
</g>
<g>
</g>
<g>
</g>
</svg>
